<svg width="43" height="443" viewBox="0 0 43 443" fill="none" xmlns="http://www.w3.org/2000/svg">
<mask id="path-1-outside-1_9_35" maskUnits="userSpaceOnUse" x="-0.23938" y="0.423584" width="44" height="442" fill="black">
<rect fill="white" x="-0.23938" y="0.423584" width="44" height="442"/>
<path d="M9.65662 433.84L14.6786 433.84L14.6786 415.804L22.2386 415.804L22.2386 433.84L40.7606 433.84L40.7606 441.184L2.09662 441.184L2.09662 415.372L9.65662 415.372L9.65662 433.84ZM40.7606 410.018L2.09662 410.018L2.09662 402.62L33.1466 402.62L33.1466 384.26L40.7606 384.26L40.7606 410.018ZM40.7606 356.901L22.1846 356.901L22.1846 371.427C27.6926 373.749 32.5526 373.533 40.7606 373.533L40.7606 381.039L34.1726 381.039C25.5326 381.039 17.0546 378.663 9.65662 374.289L9.65662 380.877L2.09662 380.877L2.09662 349.395L40.7606 349.395L40.7606 356.901ZM9.65662 356.901L9.65662 365.811C10.6286 366.513 13.7066 367.971 14.6786 368.565L14.6786 356.901L9.65662 356.901ZM40.7606 343.046L2.09662 343.046L2.09662 335.486L40.7606 335.486L40.7606 343.046ZM40.7606 322.584L2.09662 322.584L2.09662 315.186L33.1466 315.186L33.1466 296.826L40.7606 296.826L40.7606 322.584ZM40.7606 272.54L2.09662 272.54L2.09662 264.98L40.7606 264.98L40.7606 272.54ZM40.7606 238.741L2.09662 238.741L2.09662 207.097C10.4126 208.069 17.2166 211.957 22.6706 216.385C27.3146 212.443 33.3086 208.501 40.7606 206.989L40.7606 238.741ZM9.65662 231.235L26.0726 231.235C22.4546 225.241 16.0826 219.949 9.65662 216.925L9.65662 231.235ZM28.1786 221.515C30.0686 223.621 31.6886 225.889 33.1466 228.265L33.1466 218.005C31.3646 219.031 29.7986 220.165 28.1786 221.515ZM40.7606 202.14L2.09662 202.14L2.09662 194.58L40.7606 194.58L40.7606 202.14ZM2.09662 190.324L2.09662 158.68L9.65662 158.68L9.65662 181.306C20.7806 177.04 28.3406 170.29 33.4706 158.68L41.1386 158.68C35.2526 176.122 20.4566 188.38 2.09662 190.324ZM41.5706 153.465L2.09662 153.465L2.09662 146.013L29.4206 146.013C22.6166 137.157 14.3006 131.757 2.09662 129.597L2.09662 121.875C19.5386 124.575 35.9006 136.239 41.5706 153.465ZM22.2386 99.2467L22.2386 108.805C22.2386 113.935 18.3506 118.741 12.2486 118.741C6.36262 118.741 2.09662 113.935 2.09662 108.805L2.09662 87.0967L9.65662 87.0967L9.65662 108.805C9.65662 110.425 11.2766 111.235 12.2486 111.235C13.6526 111.235 14.6786 109.885 14.6786 108.805L14.6786 90.6607C14.6786 89.1487 15.1646 87.6907 17.0546 87.6907C18.0806 87.6907 19.9706 88.5547 21.5366 89.3647C25.0466 91.2007 29.5286 95.1427 32.9306 99.8407C36.1166 104.215 40.1666 111.775 40.8686 118.633L33.2546 118.633C32.4986 114.043 30.0686 108.805 27.9086 105.673C26.0726 103.081 24.7766 101.515 22.2386 99.2467ZM32.7686 74.9834L40.7606 74.9834L40.7606 82.4354L2.09662 82.4354L2.09662 51.9254C16.3526 55.3814 26.5586 63.4274 32.7686 74.9834ZM9.65662 74.9834L23.9666 74.9834C20.5106 69.7454 15.2726 65.1554 9.65662 62.3474L9.65662 74.9834ZM40.7606 47.6809L2.09662 47.6809L2.09662 40.1209L40.7606 40.1209L40.7606 47.6809ZM40.7066 33.7051L1.71862 33.7051C7.55062 16.2631 22.4006 4.00507 40.7606 2.06107L40.7066 33.7051ZM13.5446 26.1991L33.1466 26.1991L33.1466 11.1331C24.7766 14.2111 18.4046 18.8551 13.5446 26.1991Z"/>
</mask>
<path d="M9.65662 433.84L14.6786 433.84L14.6786 415.804L22.2386 415.804L22.2386 433.84L40.7606 433.84L40.7606 441.184L2.09662 441.184L2.09662 415.372L9.65662 415.372L9.65662 433.84ZM40.7606 410.018L2.09662 410.018L2.09662 402.62L33.1466 402.62L33.1466 384.26L40.7606 384.26L40.7606 410.018ZM40.7606 356.901L22.1846 356.901L22.1846 371.427C27.6926 373.749 32.5526 373.533 40.7606 373.533L40.7606 381.039L34.1726 381.039C25.5326 381.039 17.0546 378.663 9.65662 374.289L9.65662 380.877L2.09662 380.877L2.09662 349.395L40.7606 349.395L40.7606 356.901ZM9.65662 356.901L9.65662 365.811C10.6286 366.513 13.7066 367.971 14.6786 368.565L14.6786 356.901L9.65662 356.901ZM40.7606 343.046L2.09662 343.046L2.09662 335.486L40.7606 335.486L40.7606 343.046ZM40.7606 322.584L2.09662 322.584L2.09662 315.186L33.1466 315.186L33.1466 296.826L40.7606 296.826L40.7606 322.584ZM40.7606 272.54L2.09662 272.54L2.09662 264.98L40.7606 264.98L40.7606 272.54ZM40.7606 238.741L2.09662 238.741L2.09662 207.097C10.4126 208.069 17.2166 211.957 22.6706 216.385C27.3146 212.443 33.3086 208.501 40.7606 206.989L40.7606 238.741ZM9.65662 231.235L26.0726 231.235C22.4546 225.241 16.0826 219.949 9.65662 216.925L9.65662 231.235ZM28.1786 221.515C30.0686 223.621 31.6886 225.889 33.1466 228.265L33.1466 218.005C31.3646 219.031 29.7986 220.165 28.1786 221.515ZM40.7606 202.14L2.09662 202.14L2.09662 194.58L40.7606 194.58L40.7606 202.14ZM2.09662 190.324L2.09662 158.68L9.65662 158.68L9.65662 181.306C20.7806 177.04 28.3406 170.29 33.4706 158.68L41.1386 158.68C35.2526 176.122 20.4566 188.38 2.09662 190.324ZM41.5706 153.465L2.09662 153.465L2.09662 146.013L29.4206 146.013C22.6166 137.157 14.3006 131.757 2.09662 129.597L2.09662 121.875C19.5386 124.575 35.9006 136.239 41.5706 153.465ZM22.2386 99.2467L22.2386 108.805C22.2386 113.935 18.3506 118.741 12.2486 118.741C6.36262 118.741 2.09662 113.935 2.09662 108.805L2.09662 87.0967L9.65662 87.0967L9.65662 108.805C9.65662 110.425 11.2766 111.235 12.2486 111.235C13.6526 111.235 14.6786 109.885 14.6786 108.805L14.6786 90.6607C14.6786 89.1487 15.1646 87.6907 17.0546 87.6907C18.0806 87.6907 19.9706 88.5547 21.5366 89.3647C25.0466 91.2007 29.5286 95.1427 32.9306 99.8407C36.1166 104.215 40.1666 111.775 40.8686 118.633L33.2546 118.633C32.4986 114.043 30.0686 108.805 27.9086 105.673C26.0726 103.081 24.7766 101.515 22.2386 99.2467ZM32.7686 74.9834L40.7606 74.9834L40.7606 82.4354L2.09662 82.4354L2.09662 51.9254C16.3526 55.3814 26.5586 63.4274 32.7686 74.9834ZM9.65662 74.9834L23.9666 74.9834C20.5106 69.7454 15.2726 65.1554 9.65662 62.3474L9.65662 74.9834ZM40.7606 47.6809L2.09662 47.6809L2.09662 40.1209L40.7606 40.1209L40.7606 47.6809ZM40.7066 33.7051L1.71862 33.7051C7.55062 16.2631 22.4006 4.00507 40.7606 2.06107L40.7066 33.7051ZM13.5446 26.1991L33.1466 26.1991L33.1466 11.1331C24.7766 14.2111 18.4046 18.8551 13.5446 26.1991Z" fill="#CAE3AE"/>
<path d="M9.65662 433.84L8.65662 433.84L8.65662 434.84L9.65662 434.84L9.65662 433.84ZM14.6786 433.84L14.6786 434.84L15.6786 434.84L15.6786 433.84L14.6786 433.84ZM14.6786 415.804L14.6786 414.804L13.6786 414.804L13.6786 415.804L14.6786 415.804ZM22.2386 415.804L23.2386 415.804L23.2386 414.804L22.2386 414.804L22.2386 415.804ZM22.2386 433.84L21.2386 433.84L21.2386 434.84L22.2386 434.84L22.2386 433.84ZM40.7606 433.84L41.7606 433.84L41.7606 432.84L40.7606 432.84L40.7606 433.84ZM40.7606 441.184L40.7606 442.184L41.7606 442.184L41.7606 441.184L40.7606 441.184ZM2.09662 441.184L1.09662 441.184L1.09662 442.184L2.09662 442.184L2.09662 441.184ZM2.09662 415.372L2.09662 414.372L1.09662 414.372L1.09662 415.372L2.09662 415.372ZM9.65662 415.372L10.6566 415.372L10.6566 414.372L9.65662 414.372L9.65662 415.372ZM9.65662 434.84L14.6786 434.84L14.6786 432.84L9.65662 432.84L9.65662 434.84ZM15.6786 433.84L15.6786 415.804L13.6786 415.804L13.6786 433.84L15.6786 433.84ZM14.6786 416.804L22.2386 416.804L22.2386 414.804L14.6786 414.804L14.6786 416.804ZM21.2386 415.804L21.2386 433.84L23.2386 433.84L23.2386 415.804L21.2386 415.804ZM22.2386 434.84L40.7606 434.84L40.7606 432.84L22.2386 432.84L22.2386 434.84ZM39.7606 433.84L39.7606 441.184L41.7606 441.184L41.7606 433.84L39.7606 433.84ZM40.7606 440.184L2.09662 440.184L2.09662 442.184L40.7606 442.184L40.7606 440.184ZM3.09662 441.184L3.09662 415.372L1.09662 415.372L1.09662 441.184L3.09662 441.184ZM2.09662 416.372L9.65662 416.372L9.65662 414.372L2.09662 414.372L2.09662 416.372ZM8.65662 415.372L8.65662 433.84L10.6566 433.84L10.6566 415.372L8.65662 415.372ZM40.7606 410.018L40.7606 411.018L41.7606 411.018L41.7606 410.018L40.7606 410.018ZM2.09662 410.018L1.09662 410.018L1.09662 411.018L2.09662 411.018L2.09662 410.018ZM2.09662 402.62L2.09662 401.62L1.09662 401.62L1.09662 402.62L2.09662 402.62ZM33.1466 402.62L33.1466 403.62L34.1466 403.62L34.1466 402.62L33.1466 402.62ZM33.1466 384.26L33.1466 383.26L32.1466 383.26L32.1466 384.26L33.1466 384.26ZM40.7606 384.26L41.7606 384.26L41.7606 383.26L40.7606 383.26L40.7606 384.26ZM40.7606 409.018L2.09662 409.018L2.09662 411.018L40.7606 411.018L40.7606 409.018ZM3.09662 410.018L3.09662 402.62L1.09662 402.62L1.09662 410.018L3.09662 410.018ZM2.09662 403.62L33.1466 403.62L33.1466 401.62L2.09662 401.62L2.09662 403.62ZM34.1466 402.62L34.1466 384.26L32.1466 384.26L32.1466 402.62L34.1466 402.62ZM33.1466 385.26L40.7606 385.26L40.7606 383.26L33.1466 383.26L33.1466 385.26ZM39.7606 384.26L39.7606 410.018L41.7606 410.018L41.7606 384.26L39.7606 384.26ZM40.7606 356.901L40.7606 357.901L41.7606 357.901L41.7606 356.901L40.7606 356.901ZM22.1846 356.901L22.1846 355.901L21.1846 355.901L21.1846 356.901L22.1846 356.901ZM22.1846 371.427L21.1846 371.427L21.1846 372.091L21.7962 372.348L22.1846 371.427ZM40.7606 373.533L41.7606 373.533L41.7606 372.533L40.7606 372.533L40.7606 373.533ZM40.7606 381.039L40.7606 382.039L41.7606 382.039L41.7606 381.039L40.7606 381.039ZM9.65662 374.289L10.1656 373.428L8.65662 372.536L8.65662 374.289L9.65662 374.289ZM9.65662 380.877L9.65662 381.877L10.6566 381.877L10.6566 380.877L9.65662 380.877ZM2.09662 380.877L1.09662 380.877L1.09662 381.877L2.09662 381.877L2.09662 380.877ZM2.09662 349.395L2.09662 348.395L1.09662 348.395L1.09662 349.395L2.09662 349.395ZM40.7606 349.395L41.7606 349.395L41.7606 348.395L40.7606 348.395L40.7606 349.395ZM9.65662 356.901L9.65662 355.901L8.65662 355.901L8.65662 356.901L9.65662 356.901ZM9.65662 365.811L8.65662 365.811L8.65662 366.322L9.07113 366.622L9.65662 365.811ZM14.6786 368.565L14.1572 369.418L15.6786 370.348L15.6786 368.565L14.6786 368.565ZM14.6786 356.901L15.6786 356.901L15.6786 355.901L14.6786 355.901L14.6786 356.901ZM40.7606 355.901L22.1846 355.901L22.1846 357.901L40.7606 357.901L40.7606 355.901ZM21.1846 356.901L21.1846 371.427L23.1846 371.427L23.1846 356.901L21.1846 356.901ZM21.7962 372.348C27.5321 374.767 32.6283 374.533 40.7606 374.533L40.7606 372.533C32.477 372.533 27.8532 372.731 22.5731 370.506L21.7962 372.348ZM39.7606 373.533L39.7606 381.039L41.7606 381.039L41.7606 373.533L39.7606 373.533ZM40.7606 380.039L34.1726 380.039L34.1726 382.039L40.7606 382.039L40.7606 380.039ZM34.1726 380.039C25.7156 380.039 17.4129 377.713 10.1656 373.428L9.14768 375.15C16.6964 379.613 25.3496 382.039 34.1726 382.039L34.1726 380.039ZM8.65662 374.289L8.65662 380.877L10.6566 380.877L10.6566 374.289L8.65662 374.289ZM9.65662 379.877L2.09662 379.877L2.09662 381.877L9.65662 381.877L9.65662 379.877ZM3.09662 380.877L3.09662 349.395L1.09662 349.395L1.09662 380.877L3.09662 380.877ZM2.09662 350.395L40.7606 350.395L40.7606 348.395L2.09662 348.395L2.09662 350.395ZM39.7606 349.395L39.7606 356.901L41.7606 356.901L41.7606 349.395L39.7606 349.395ZM8.65662 356.901L8.65662 365.811L10.6566 365.811L10.6566 356.901L8.65662 356.901ZM9.07113 366.622C9.6305 367.026 10.7211 367.603 11.7063 368.116C12.7508 368.659 13.7102 369.145 14.1572 369.418L15.2001 367.712C14.675 367.391 13.6095 366.851 12.629 366.341C11.5891 365.801 10.6547 365.298 10.2421 365L9.07113 366.622ZM15.6786 368.565L15.6786 356.901L13.6786 356.901L13.6786 368.565L15.6786 368.565ZM14.6786 355.901L9.65662 355.901L9.65662 357.901L14.6786 357.901L14.6786 355.901ZM40.7606 343.046L40.7606 344.046L41.7606 344.046L41.7606 343.046L40.7606 343.046ZM2.09662 343.046L1.09662 343.046L1.09662 344.046L2.09662 344.046L2.09662 343.046ZM2.09662 335.486L2.09662 334.486L1.09662 334.486L1.09662 335.486L2.09662 335.486ZM40.7606 335.486L41.7606 335.486L41.7606 334.486L40.7606 334.486L40.7606 335.486ZM40.7606 342.046L2.09662 342.046L2.09662 344.046L40.7606 344.046L40.7606 342.046ZM3.09662 343.046L3.09662 335.486L1.09662 335.486L1.09662 343.046L3.09662 343.046ZM2.09662 336.486L40.7606 336.486L40.7606 334.486L2.09662 334.486L2.09662 336.486ZM39.7606 335.486L39.7606 343.046L41.7606 343.046L41.7606 335.486L39.7606 335.486ZM40.7606 322.584L40.7606 323.584L41.7606 323.584L41.7606 322.584L40.7606 322.584ZM2.09662 322.584L1.09662 322.584L1.09662 323.584L2.09662 323.584L2.09662 322.584ZM2.09662 315.186L2.09662 314.186L1.09662 314.186L1.09662 315.186L2.09662 315.186ZM33.1466 315.186L33.1466 316.186L34.1466 316.186L34.1466 315.186L33.1466 315.186ZM33.1466 296.826L33.1466 295.826L32.1466 295.826L32.1466 296.826L33.1466 296.826ZM40.7606 296.826L41.7606 296.826L41.7606 295.826L40.7606 295.826L40.7606 296.826ZM40.7606 321.584L2.09662 321.584L2.09662 323.584L40.7606 323.584L40.7606 321.584ZM3.09662 322.584L3.09662 315.186L1.09662 315.186L1.09662 322.584L3.09662 322.584ZM2.09662 316.186L33.1466 316.186L33.1466 314.186L2.09662 314.186L2.09662 316.186ZM34.1466 315.186L34.1466 296.826L32.1466 296.826L32.1466 315.186L34.1466 315.186ZM33.1466 297.826L40.7606 297.826L40.7606 295.826L33.1466 295.826L33.1466 297.826ZM39.7606 296.826L39.7606 322.584L41.7606 322.584L41.7606 296.826L39.7606 296.826ZM40.7606 272.54L40.7606 273.54L41.7606 273.54L41.7606 272.54L40.7606 272.54ZM2.09662 272.54L1.09662 272.54L1.09662 273.54L2.09662 273.54L2.09662 272.54ZM2.09662 264.98L2.09662 263.98L1.09662 263.98L1.09662 264.98L2.09662 264.98ZM40.7606 264.98L41.7606 264.98L41.7606 263.98L40.7606 263.98L40.7606 264.98ZM40.7606 271.54L2.09662 271.54L2.09662 273.54L40.7606 273.54L40.7606 271.54ZM3.09662 272.54L3.09662 264.98L1.09662 264.98L1.09662 272.54L3.09662 272.54ZM2.09662 265.98L40.7606 265.98L40.7606 263.98L2.09662 263.98L2.09662 265.98ZM39.7606 264.98L39.7606 272.54L41.7606 272.54L41.7606 264.98L39.7606 264.98ZM40.7606 238.741L40.7606 239.741L41.7606 239.741L41.7606 238.741L40.7606 238.741ZM2.09662 238.741L1.09662 238.741L1.09662 239.741L2.09662 239.741L2.09662 238.741ZM2.09662 207.097L2.21271 206.104L1.09662 205.974L1.09662 207.097L2.09662 207.097ZM22.6706 216.385L22.0403 217.162L22.6848 217.685L23.3178 217.148L22.6706 216.385ZM40.7606 206.989L41.7606 206.989L41.7606 205.766L40.5618 206.009L40.7606 206.989ZM9.65662 231.235L8.65662 231.235L8.65662 232.235L9.65662 232.235L9.65662 231.235ZM26.0726 231.235L26.0726 232.235L27.8443 232.235L26.9288 230.719L26.0726 231.235ZM9.65662 216.925L10.0824 216.021L8.65662 215.35L8.65662 216.925L9.65662 216.925ZM28.1786 221.515L27.5384 220.747L26.7415 221.411L27.4344 222.183L28.1786 221.515ZM33.1466 228.265L32.2943 228.788L34.1466 231.807L34.1466 228.265L33.1466 228.265ZM33.1466 218.005L34.1466 218.005L34.1466 216.276L32.6477 217.139L33.1466 218.005ZM40.7606 237.741L2.09662 237.741L2.09662 239.741L40.7606 239.741L40.7606 237.741ZM3.09662 238.741L3.09662 207.097L1.09662 207.097L1.09662 238.741L3.09662 238.741ZM1.98053 208.091C10.0457 209.033 16.6759 212.806 22.0403 217.162L23.3009 215.609C17.7573 211.108 10.7795 207.105 2.21271 206.104L1.98053 208.091ZM23.3178 217.148C27.8954 213.262 33.7378 209.435 40.9595 207.969L40.5618 206.009C32.8794 207.568 26.7339 211.625 22.0235 215.623L23.3178 217.148ZM39.7606 206.989L39.7606 238.741L41.7606 238.741L41.7606 206.989L39.7606 206.989ZM9.65662 232.235L26.0726 232.235L26.0726 230.235L9.65662 230.235L9.65662 232.235ZM26.9288 230.719C23.1926 224.529 16.6564 219.114 10.0824 216.021L9.23082 217.83C15.5089 220.785 21.7167 225.954 25.2165 231.752L26.9288 230.719ZM8.65662 216.925L8.65662 231.235L10.6566 231.235L10.6566 216.925L8.65662 216.925ZM27.4344 222.183C29.2756 224.235 30.8605 226.452 32.2943 228.788L33.9989 227.742C32.5167 225.327 30.8616 223.008 28.9229 220.847L27.4344 222.183ZM34.1466 228.265L34.1466 218.005L32.1466 218.005L32.1466 228.265L34.1466 228.265ZM32.6477 217.139C30.8056 218.199 29.1925 219.369 27.5384 220.747L28.8188 222.284C30.4048 220.962 31.9236 219.863 33.6456 218.872L32.6477 217.139ZM40.7606 202.14L40.7606 203.14L41.7606 203.14L41.7606 202.14L40.7606 202.14ZM2.09662 202.14L1.09662 202.14L1.09662 203.14L2.09662 203.14L2.09662 202.14ZM2.09662 194.58L2.09662 193.58L1.09662 193.58L1.09662 194.58L2.09662 194.58ZM40.7606 194.58L41.7606 194.58L41.7606 193.58L40.7606 193.58L40.7606 194.58ZM40.7606 201.14L2.09662 201.14L2.09662 203.14L40.7606 203.14L40.7606 201.14ZM3.09662 202.14L3.09662 194.58L1.09662 194.58L1.09662 202.14L3.09662 202.14ZM2.09662 195.58L40.7606 195.58L40.7606 193.58L2.09662 193.58L2.09662 195.58ZM39.7606 194.58L39.7606 202.14L41.7606 202.14L41.7606 194.58L39.7606 194.58ZM2.09662 190.324L1.09662 190.324L1.09662 191.436L2.20192 191.318L2.09662 190.324ZM2.09662 158.68L2.09662 157.68L1.09662 157.68L1.09662 158.68L2.09662 158.68ZM9.65662 158.68L10.6566 158.68L10.6566 157.68L9.65662 157.68L9.65662 158.68ZM9.65662 181.306L8.65662 181.306L8.65662 182.761L10.0147 182.24L9.65662 181.306ZM33.4706 158.68L33.4706 157.68L32.8192 157.68L32.5559 158.276L33.4706 158.68ZM41.1386 158.68L42.0861 159L42.5315 157.68L41.1386 157.68L41.1386 158.68ZM3.09662 190.324L3.09662 158.68L1.09662 158.68L1.09662 190.324L3.09662 190.324ZM2.09662 159.68L9.65662 159.68L9.65662 157.68L2.09662 157.68L2.09662 159.68ZM8.65662 158.68L8.65662 181.306L10.6566 181.306L10.6566 158.68L8.65662 158.68ZM10.0147 182.24C21.3765 177.883 29.1431 170.948 34.3853 159.084L32.5559 158.276C27.5382 169.632 20.1847 176.198 9.29855 180.372L10.0147 182.24ZM33.4706 159.68L41.1386 159.68L41.1386 157.68L33.4706 157.68L33.4706 159.68ZM40.1911 158.36C34.4256 175.445 19.9493 187.428 1.99133 189.33L2.20192 191.318C20.9639 189.332 36.0797 176.799 42.0861 159L40.1911 158.36ZM41.5706 153.465L41.5706 154.465L42.9526 154.465L42.5205 153.152L41.5706 153.465ZM2.09662 153.465L1.09662 153.465L1.09662 154.465L2.09662 154.465L2.09662 153.465ZM2.09662 146.013L2.09662 145.013L1.09662 145.013L1.09662 146.013L2.09662 146.013ZM29.4206 146.013L29.4206 147.013L31.45 147.013L30.2136 145.404L29.4206 146.013ZM2.09662 129.597L1.09662 129.597L1.09662 130.435L1.92234 130.582L2.09662 129.597ZM2.09662 121.875L2.2496 120.887L1.09662 120.708L1.09662 121.875L2.09662 121.875ZM41.5706 152.465L2.09662 152.465L2.09662 154.465L41.5706 154.465L41.5706 152.465ZM3.09662 153.465L3.09662 146.013L1.09662 146.013L1.09662 153.465L3.09662 153.465ZM2.09662 147.013L29.4206 147.013L29.4206 145.013L2.09662 145.013L2.09662 147.013ZM30.2136 145.404C23.2609 136.354 14.7262 130.817 2.27091 128.612L1.92234 130.582C13.8751 132.697 21.9724 137.96 28.6276 146.622L30.2136 145.404ZM3.09662 129.597L3.09662 121.875L1.09662 121.875L1.09662 129.597L3.09662 129.597ZM1.94365 122.863C19.0847 125.516 35.0891 136.972 40.6208 153.777L42.5205 153.152C36.7122 135.506 19.9925 123.633 2.2496 120.887L1.94365 122.863ZM22.2386 99.2467L22.905 98.5011L21.2386 97.012L21.2386 99.2467L22.2386 99.2467ZM2.09662 87.0967L2.09662 86.0967L1.09662 86.0967L1.09662 87.0967L2.09662 87.0967ZM9.65662 87.0967L10.6566 87.0967L10.6566 86.0967L9.65662 86.0967L9.65662 87.0967ZM21.5366 89.3647L22.0001 88.4786L21.996 88.4765L21.5366 89.3647ZM32.9306 99.8407L32.1207 100.427L32.1223 100.429L32.9306 99.8407ZM40.8686 118.633L40.8686 119.633L41.9762 119.633L41.8634 118.531L40.8686 118.633ZM33.2546 118.633L32.2679 118.795L32.4059 119.633L33.2546 119.633L33.2546 118.633ZM27.9086 105.673L28.7319 105.105L28.7246 105.095L27.9086 105.673ZM21.2386 99.2467L21.2386 108.805L23.2386 108.805L23.2386 99.2467L21.2386 99.2467ZM21.2386 108.805C21.2386 113.44 17.7423 117.741 12.2486 117.741L12.2486 119.741C18.9589 119.741 23.2386 114.429 23.2386 108.805L21.2386 108.805ZM12.2486 117.741C6.93574 117.741 3.09662 113.404 3.09662 108.805L1.09662 108.805C1.09662 114.466 5.7895 119.741 12.2486 119.741L12.2486 117.741ZM3.09662 108.805L3.09662 87.0967L1.09662 87.0967L1.09662 108.805L3.09662 108.805ZM2.09662 88.0967L9.65662 88.0967L9.65662 86.0967L2.09662 86.0967L2.09662 88.0967ZM8.65662 87.0967L8.65662 108.805L10.6566 108.805L10.6566 87.0967L8.65662 87.0967ZM8.65662 108.805C8.65662 109.989 9.26162 110.868 9.97841 111.42C10.6688 111.951 11.5287 112.235 12.2486 112.235L12.2486 110.235C11.9965 110.235 11.5604 110.113 11.1978 109.835C10.8616 109.576 10.6566 109.24 10.6566 108.805L8.65662 108.805ZM12.2486 112.235C13.2861 112.235 14.1471 111.735 14.7282 111.099C15.2977 110.477 15.6786 109.637 15.6786 108.805L13.6786 108.805C13.6786 109.053 13.5466 109.428 13.2521 109.75C12.9691 110.059 12.6151 110.235 12.2486 110.235L12.2486 112.235ZM15.6786 108.805L15.6786 90.6607L13.6786 90.6607L13.6786 108.805L15.6786 108.805ZM15.6786 90.6607C15.6786 89.9796 15.7939 89.4668 15.9977 89.1516C16.1527 88.9118 16.4134 88.6907 17.0546 88.6907L17.0546 86.6907C15.8059 86.6907 14.8786 87.1987 14.318 88.0659C13.8063 88.8576 13.6786 89.8298 13.6786 90.6607L15.6786 90.6607ZM17.0546 88.6907C17.3592 88.6907 17.9316 88.8377 18.7231 89.153C19.4758 89.4528 20.3069 89.8545 21.0772 90.2529L21.996 88.4765C21.2004 88.065 20.3035 87.6297 19.4632 87.295C18.6617 86.9757 17.7761 86.6907 17.0546 86.6907L17.0546 88.6907ZM21.0731 90.2508C24.418 92.0005 28.7889 95.8262 32.1207 100.427L33.7406 99.2542C30.2684 94.4593 25.6752 90.401 22.0001 88.4786L21.0731 90.2508ZM32.1223 100.429C35.2595 104.737 39.1975 112.127 39.8738 118.735L41.8634 118.531C41.1358 111.422 36.9737 103.693 33.7389 99.252L32.1223 100.429ZM40.8686 117.633L33.2546 117.633L33.2546 119.633L40.8686 119.633L40.8686 117.633ZM34.2413 118.47C33.4571 113.709 30.9591 108.334 28.7318 105.105L27.0854 106.24C29.1782 109.275 31.5402 114.377 32.2679 118.795L34.2413 118.47ZM28.7246 105.095C26.855 102.455 25.5104 100.829 22.905 98.5011L21.5723 99.9924C24.0429 102.2 25.2902 103.706 27.0926 106.251L28.7246 105.095ZM32.7686 74.9834L31.8878 75.4568L32.1708 75.9834L32.7686 75.9834L32.7686 74.9834ZM40.7606 74.9834L41.7606 74.9834L41.7606 73.9834L40.7606 73.9834L40.7606 74.9834ZM40.7606 82.4354L40.7606 83.4354L41.7606 83.4354L41.7606 82.4354L40.7606 82.4354ZM2.09662 82.4354L1.09662 82.4354L1.09662 83.4354L2.09662 83.4354L2.09662 82.4354ZM2.09662 51.9254L2.33222 50.9536L1.09662 50.654L1.09662 51.9254L2.09662 51.9254ZM9.65662 74.9834L8.65662 74.9834L8.65662 75.9834L9.65662 75.9834L9.65662 74.9834ZM23.9666 74.9834L23.9666 75.9834L25.8245 75.9834L24.8013 74.4327L23.9666 74.9834ZM9.65662 62.3474L10.1038 61.453L8.65662 60.7294L8.65662 62.3474L9.65662 62.3474ZM32.7686 75.9834L40.7606 75.9834L40.7606 73.9834L32.7686 73.9834L32.7686 75.9834ZM39.7606 74.9834L39.7606 82.4354L41.7606 82.4354L41.7606 74.9834L39.7606 74.9834ZM40.7606 81.4354L2.09662 81.4354L2.09662 83.4354L40.7606 83.4354L40.7606 81.4354ZM3.09662 82.4354L3.09662 51.9254L1.09662 51.9254L1.09662 82.4354L3.09662 82.4354ZM1.86102 52.8973C15.8514 56.2889 25.8173 64.1604 31.8878 75.4568L33.6495 74.5101C27.3 62.6944 16.8539 54.474 2.33222 50.9536L1.86102 52.8973ZM9.65662 75.9834L23.9666 75.9834L23.9666 73.9834L9.65662 73.9834L9.65662 75.9834ZM24.8013 74.4327C21.2461 69.0443 15.8729 64.3375 10.1038 61.453L9.20941 63.2419C14.6724 65.9733 19.7751 70.4465 23.1319 75.5341L24.8013 74.4327ZM8.65662 62.3474L8.65662 74.9834L10.6566 74.9834L10.6566 62.3474L8.65662 62.3474ZM40.7606 47.6809L40.7606 48.6809L41.7606 48.6809L41.7606 47.6809L40.7606 47.6809ZM2.09662 47.6809L1.09662 47.6809L1.09662 48.6809L2.09662 48.6809L2.09662 47.6809ZM2.09662 40.1209L2.09662 39.1209L1.09662 39.1209L1.09662 40.1209L2.09662 40.1209ZM40.7606 40.1209L41.7606 40.1209L41.7606 39.1209L40.7606 39.1209L40.7606 40.1209ZM40.7606 46.6809L2.09662 46.6809L2.09662 48.6809L40.7606 48.6809L40.7606 46.6809ZM3.09662 47.6809L3.09662 40.1209L1.09662 40.1209L1.09662 47.6809L3.09662 47.6809ZM2.09662 41.1209L40.7606 41.1209L40.7606 39.1209L2.09662 39.1209L2.09662 41.1209ZM39.7606 40.1209L39.7606 47.6809L41.7606 47.6809L41.7606 40.1209L39.7606 40.1209ZM40.7066 33.7051L40.7066 34.7051L41.7049 34.7051L41.7066 33.7068L40.7066 33.7051ZM1.71862 33.7051L0.770233 33.388L0.329837 34.7051L1.71862 34.7051L1.71862 33.7051ZM40.7606 2.06107L41.7606 2.06278L41.7625 0.949402L40.6553 1.06662L40.7606 2.06107ZM13.5446 26.1991L12.7107 25.6472L11.6837 27.1991L13.5446 27.1991L13.5446 26.1991ZM33.1466 26.1991L33.1466 27.1991L34.1466 27.1991L34.1466 26.1991L33.1466 26.1991ZM33.1466 11.1331L34.1466 11.1331L34.1466 9.69986L32.8015 10.1945L33.1466 11.1331ZM40.7066 32.7051L1.71862 32.7051L1.71862 34.7051L40.7066 34.7051L40.7066 32.7051ZM2.66701 34.0222C8.37827 16.9413 22.906 4.95715 40.8659 3.05551L40.6553 1.06662C21.8953 3.05298 6.72298 15.5848 0.770233 33.388L2.66701 34.0222ZM39.7606 2.05936L39.7066 33.7034L41.7066 33.7068L41.7606 2.06278L39.7606 2.05936ZM13.5446 27.1991L33.1466 27.1991L33.1466 25.1991L13.5446 25.1991L13.5446 27.1991ZM34.1466 26.1991L34.1466 11.1331L32.1466 11.1331L32.1466 26.1991L34.1466 26.1991ZM32.8015 10.1945C24.2589 13.336 17.7034 18.1027 12.7107 25.6472L14.3786 26.7509C19.1058 19.6075 25.2944 15.0862 33.4918 12.0716L32.8015 10.1945Z" fill="#CAE3AE" mask="url(#path-1-outside-1_9_35)"/>
</svg>
