<svg width="936" height="885" viewBox="0 0 936 885" fill="none" xmlns="http://www.w3.org/2000/svg">
<path d="M47.2041 487.004L313.237 487.004V446.259L47.2041 446.259V487.004Z" fill="#29292D"/>
<path d="M0.537442 295.33L387.921 455.657L403.554 418.019L16.171 257.692L0.537442 295.33Z" fill="#29292D"/>
<path d="M156.026 184.02L344.14 371.793L373.003 342.982L184.889 155.209L156.026 184.02Z" fill="#29292D"/>
<path d="M258.708 15.6236L419.326 402.306L457.032 386.7L296.414 0.0183565L258.708 15.6236Z" fill="#29292D"/>
<path d="M447.605 46.5831V312.134H488.423V46.5831H447.605Z" fill="#29292D"/>
<path d="M639.607 2.61588e-05L478.99 386.682L516.695 402.287L677.313 15.6053L639.607 2.61588e-05Z" fill="#29292D"/>
<path d="M751.137 155.203L563.023 342.976L591.886 371.786L780 184.013L751.137 155.203Z" fill="#29292D"/>
<path d="M919.841 257.723L532.458 418.05L548.091 455.688L935.475 295.361L919.841 257.723Z" fill="#29292D"/>
<path d="M888.817 446.259H622.784V487.003H888.817V446.259Z" fill="#29292D"/>
<path d="M468.112 406.455C437.122 406.455 411.569 432.91 411.569 465.494C411.569 498.078 437.122 524.769 468.112 524.769C499.101 524.769 524.417 497.848 524.417 465.494C524.417 433.14 499.338 406.455 468.112 406.455ZM468.112 484.858C457.938 484.858 449.425 476.116 449.425 465.494C449.425 454.872 457.708 446.36 468.112 446.36C478.516 446.36 486.331 454.857 486.331 465.494C486.331 476.13 478.048 484.858 468.112 484.858Z" fill="#EF403B"/>
<path d="M410.958 844.859H461.259V885.007H385.332C373.699 885.007 364.265 875.591 364.265 863.979V698.21C364.265 658.212 378.861 611.612 407.859 575.296H267.307C255.673 575.296 246.24 565.879 246.24 554.267V478.47H286.461V528.724C286.461 532.398 289.445 535.377 293.127 535.377H415.624L520.398 535.384L642.895 535.377C646.576 535.377 649.56 532.398 649.56 528.724V478.47H689.782V554.267C689.782 565.879 680.348 575.296 668.715 575.296H531.586C560.518 611.734 575.035 658.32 575.035 698.21V715.923H575.064V838.199C575.064 841.873 578.048 844.852 581.729 844.852H632.074V885H556.032C544.441 885 535.03 875.649 534.965 864.079L534.109 697.959C534.109 662.059 521.577 628.298 500.287 599.009C497.684 603.028 495.312 607.04 493.421 611.533C505.967 638.217 513.531 668.921 513.531 698.203L513.783 704.476V784.041C513.783 795.653 504.35 805.069 492.716 805.069H439.006C427.372 805.069 417.939 795.653 417.939 784.041V718.263C417.939 707.246 426.524 697.866 437.554 697.478C449.13 697.076 458.628 706.32 458.628 717.775V757.249C458.628 761.225 461.856 764.447 465.839 764.447C469.837 764.447 473.065 761.203 473.051 757.22L472.821 697.959C472.821 662.059 460.044 628.528 438.984 599.246C417.695 628.528 405.162 662.059 405.162 697.959L404.256 838.148C404.235 841.837 407.226 844.845 410.922 844.845L410.958 844.859Z" fill="#EF403B"/>
</svg>
