<svg width="285" height="585" viewBox="0 0 285 585" fill="none" xmlns="http://www.w3.org/2000/svg">
<path d="M246.959 432.977L273.615 432.977L273.615 545.92L246.959 545.92L246.959 432.977Z" fill="#29292D"/>
<path d="M219.549 546.033L219.549 432.932L196.671 432.932C185.155 442.711 176.164 452.655 168.597 463.536C161.489 453.149 152.583 443.67 141.306 435.547L141.306 245.535L179.318 245.535L179.318 218.721L141.306 218.721L141.306 132.593L179.318 132.593L179.318 105.778L114.644 105.778L114.644 546.033L141.459 546.033L141.459 471.268C146.349 476.94 150.609 483.725 154.081 490.98C149.032 505.179 148.408 522.373 148.408 546.033L174.746 546.033L174.746 536.412C174.746 515.27 179.954 492.086 193.046 474.416L193.046 546.033L219.549 546.033Z" fill="#29292D"/>
<path d="M227.173 126.2L278.981 126.2L278.981 99.5383L218.097 99.5383C219.509 96.0666 220.933 92.9127 222.51 89.7587L277.875 89.7587L277.875 63.0971L241.593 63.0971C251.219 53.1586 263.518 45.1148 278.981 38.1715L278.981 11.0391C229.89 27.8415 196.648 65.5931 187.742 115.53C187.742 115.558 187.731 115.581 187.731 115.609C186.92 120.153 186.551 124.765 186.551 129.382L186.551 142.225C206.581 145.379 226.458 151.687 241.599 165.886L216.361 165.886C201.379 165.886 186.233 178.661 186.233 197.749C186.233 198.447 186.25 199.145 186.284 199.825L186.233 199.825L186.233 415.369L279.146 415.528C276.304 387.761 268.101 367.101 255.797 349.748L284.348 302.591L253.432 302.591L237.656 329.088C230.52 322.582 222.686 317.232 212.889 312.535L212.889 228.801C214.041 228.932 215.198 228.988 216.361 228.988L278.669 228.988L278.669 202.327L217.938 202.327C215.726 202.327 213.825 201.782 212.889 200.268C212.804 200.132 212.725 199.984 212.662 199.831C212.401 199.264 212.265 198.572 212.265 197.755C212.265 194.442 214.313 192.553 217.938 192.553L266.212 192.553C271.896 192.553 276.939 190.346 276.939 183.091C276.939 177.889 275.362 172.999 273.785 169.522C264.72 149.486 247.175 135.168 227.184 126.206L227.173 126.2ZM212.413 342.652C228.5 354.479 239.386 369.466 246.959 388.714L212.413 388.714L212.413 342.652Z" fill="#29292D"/>
<path d="M101.728 551.886L101.728 40.9722L159.867 99.1056L178.235 80.7375L103.424 5.92645C95.5276 -1.97553 82.7187 -1.97553 74.8167 5.92645L-2.20268e-05 80.7432L18.3737 99.1113L75.7527 41.7323L75.7527 562.67C75.7527 574.815 85.5948 584.657 97.74 584.657L273.621 584.657L273.621 558.682L108.512 558.682C104.763 558.682 101.722 555.642 101.722 551.892L101.728 551.886Z" fill="#29292D"/>
</svg>
