<svg width="80" height="81" viewBox="0 0 80 81" fill="none" xmlns="http://www.w3.org/2000/svg">
<path id="Vector" d="M70.892 19.0599C72.2379 16.7684 73.5178 14.405 74.7374 11.9747C76.6545 8.12823 78.4124 4.12391 80 0H0.9229C1.73043 6.36288 3.32349 12.6731 5.63071 18.8064C8.15217 25.5424 11.5361 32.068 15.6781 38.2156C7.3831 50.8457 1.69196 65.6478 0 79.6652H20.5672C22.369 70.3505 25.1871 61.9353 29.2083 54.4051C41.9694 66.8294 58.3232 76.3833 76.9347 81V61.8635C64.4153 57.8544 55.8566 52.0704 48.1934 45.2817C56.9938 38.8327 64.6295 29.7572 70.892 19.0599ZM35.0313 30.3744C33.0317 27.5039 31.1914 24.4947 29.6917 21.4568C29.2742 20.61 28.8787 19.7632 28.5161 18.9164H45.8916C42.7 23.0308 38.992 26.9251 35.0313 30.3744Z" fill="#EF403B"/>
</svg>
