<svg width="431" height="711" viewBox="0 0 431 711" fill="none" xmlns="http://www.w3.org/2000/svg">
<path d="M112.329 315.253L77.0531 248.853C90.8297 231.684 100.821 210.743 108.178 180.191L71.7715 180.191L71.7715 77.0049L110.439 77.0049L110.439 45.1148L0.461764 45.1148L0.461766 77.0049L40.6467 77.0049L40.6467 180.191L0.46177 180.191L0.461777 329.402C0.461778 359.286 10.3494 394.01 29.9799 422.19C14.321 424.859 0.461781 437.256 0.461782 458.99C0.461783 481.813 18.5754 497.099 36.4959 497.099L66.6759 497.099C48.5624 514.075 24.7948 521.618 0.841019 525.39L0.84102 543.083L0.461786 543.083L0.461787 574.959L40.6467 574.959L40.6468 678.152L71.7715 678.152L71.7715 574.966L110.439 574.966L110.439 543.09L52.6305 543.09C75.2053 532.299 94.8082 515.647 105.165 492.762C107.054 488.611 108.936 482.757 108.936 476.538C108.936 467.857 102.903 465.216 96.1114 465.216L38.3851 465.216C34.0481 465.216 31.5865 462.954 31.5865 458.997C31.5865 454.846 34.6135 453.522 38.3851 453.522L111.012 453.522L111.012 421.645L86.0306 421.645C105.406 393.568 112.315 359.099 112.315 329.409L112.336 315.26L112.329 315.253ZM31.5865 212.067L64.2282 212.067C56.1195 226.402 44.6045 239.793 31.5865 249.611L31.5865 212.067ZM83.8449 315.253L83.8449 329.588C83.8449 358.451 74.04 385.053 57.8157 408.441C41.5914 385.053 31.7865 358.451 31.7865 329.588L31.7865 315.253L31.5934 315.253L31.5934 287.521C39.7021 282.998 47.2592 277.716 54.2302 272.055" fill="#EF403B"/>
<path d="M248.46 166.339L248.46 301.415L217.714 301.415C210.922 261.981 194.505 235.387 168.848 214.067L168.848 301.415L136.972 301.415L136.972 47.4041L168.848 47.4041L168.848 176.323C188.768 187.831 204.634 202.586 216.576 218.976L216.576 166.339L248.453 166.339L248.46 166.339Z" fill="#EF403B"/>
<path d="M244.095 457.3L244.095 443.145C244.095 419.756 238.062 395.23 228.057 373.91C229.567 370.332 231.457 367.119 233.525 363.919C250.501 387.314 260.506 414.281 260.506 442.958L260.506 457.3L293.141 457.3L293.141 443.145C293.141 401.263 273.145 350.143 233.339 320.342C221.838 329.961 215.418 337.125 210.137 344.861C203.717 336.938 195.795 329.009 184.666 320.714C145.046 350.329 125.051 401.263 125.051 443.145L125.051 457.3C132.035 523.321 173.151 573.497 235.98 595.003L235.98 562.555C217.494 554.26 202.78 544.634 191.272 532.754L234.663 532.754L234.663 500.878L168.449 500.878C166.559 497.106 164.863 493.327 163.167 489.183L243.702 489.183L244.095 457.307L244.095 457.3ZM157.692 457.3L157.692 442.958C157.692 414.281 167.697 387.501 184.673 364.105C201.463 387.501 211.654 414.281 211.654 442.958L211.654 457.3L157.692 457.3Z" fill="#EF403B"/>
<path d="M306.827 39.8195L306.828 660.839L236.159 590.177L213.833 612.503L304.766 703.444C314.364 713.049 329.933 713.049 339.538 703.444L430.471 612.51L408.138 590.184L338.394 659.928L338.393 26.7256C338.393 11.9631 326.43 -1.42687e-05 311.668 -1.36234e-05L-3.10287e-05 0.792969L-2.96486e-05 32.3658L298.574 31.566C303.132 31.566 306.827 35.2618 306.827 39.8195Z" fill="#EF403B"/>
</svg>
